<?xml version="1.0" encoding="UTF-8"?>
<svg width="26px" height="26px" viewBox="0 0 26 26" version="1.1" xmlns="http://www.w3.org/2000/svg" xmlns:xlink="http://www.w3.org/1999/xlink">
    <!-- Generator: Sketch 52.6 (67491) - http://www.bohemiancoding.com/sketch -->
    <title>Combined Shape</title>
    <desc>Created with Sketch.</desc>
    <g id="Designs" stroke="none" stroke-width="1" fill="none" fill-rule="evenodd">
        <g id="Desktop---Dark---Active" transform="translate(-965.000000, -81.000000)" fill="#FFFFFF">
            <path d="M978,81 C978.552285,81 979,81.4477153 979,82 L979,85 C979,85.5522847 978.552285,86 978,86 C977.447715,86 977,85.5522847 977,85 L977,82 C977,81.4477153 977.447715,81 978,81 Z M978,102 C978.552285,102 979,102.447715 979,103 L979,106 C979,106.552285 978.552285,107 978,107 C977.447715,107 977,106.552285 977,106 L977,103 C977,102.447715 977.447715,102 978,102 Z M991,94 C991,94.5522847 990.552285,95 990,95 L987,95 C986.447715,95 986,94.5522847 986,94 C986,93.4477153 986.447715,93 987,93 L990,93 C990.552285,93 991,93.4477153 991,94 Z M970,94 C970,94.5522847 969.552285,95 969,95 L966,95 C965.447715,95 965,94.5522847 965,94 C965,93.4477153 965.447715,93 966,93 L969,93 C969.552285,93 970,93.4477153 970,94 Z M987.192388,84.8076118 C987.582912,85.1981361 987.582912,85.8313011 987.192388,86.2218254 L985.071068,88.3431458 C984.680544,88.73367 984.047379,88.73367 983.656854,88.3431458 C983.26633,87.9526215 983.26633,87.3194565 983.656854,86.9289322 L985.778175,84.8076118 C986.168699,84.4170876 986.801864,84.4170876 987.192388,84.8076118 Z M972.343146,99.6568542 C972.73367,100.047379 972.73367,100.680544 972.343146,101.071068 L970.221825,103.192388 C969.831301,103.582912 969.198136,103.582912 968.807612,103.192388 C968.417088,102.801864 968.417088,102.168699 968.807612,101.778175 L970.928932,99.6568542 C971.319456,99.26633 971.952621,99.26633 972.343146,99.6568542 Z M987.192388,103.192388 C986.801864,103.582912 986.168699,103.582912 985.778175,103.192388 L983.656854,101.071068 C983.26633,100.680544 983.26633,100.047379 983.656854,99.6568542 C984.047379,99.26633 984.680544,99.26633 985.071068,99.6568542 L987.192388,101.778175 C987.582912,102.168699 987.582912,102.801864 987.192388,103.192388 Z M972.343146,88.3431458 C971.952621,88.73367 971.319456,88.73367 970.928932,88.3431458 L968.807612,86.2218254 C968.417088,85.8313011 968.417088,85.1981361 968.807612,84.8076118 C969.198136,84.4170876 969.831301,84.4170876 970.221825,84.8076118 L972.343146,86.9289322 C972.73367,87.3194565 972.73367,87.9526215 972.343146,88.3431458 Z M978,99 C975.238576,99 973,96.7614237 973,94 C973,91.2385763 975.238576,89 978,89 C980.761424,89 983,91.2385763 983,94 C983,96.7614237 980.761424,99 978,99 Z" id="Combined-Shape"></path>
        </g>
    </g>
</svg>